<svg width="1200" height="760" viewBox="0 0 1200 760" fill="none" xmlns="http://www.w3.org/2000/svg">
  <defs>
    <linearGradient id="bg1" x1="96" y1="66" x2="1118" y2="710" gradientUnits="userSpaceOnUse">
      <stop stop-color="#16205A"/>
      <stop offset="1" stop-color="#10153D"/>
    </linearGradient>
    <linearGradient id="panel1" x1="130" y1="120" x2="580" y2="614" gradientUnits="userSpaceOnUse">
      <stop stop-color="#FFFFFF" stop-opacity="0.14"/>
      <stop offset="1" stop-color="#FFFFFF" stop-opacity="0.04"/>
    </linearGradient>
    <linearGradient id="accent1" x1="744" y1="170" x2="1030" y2="428" gradientUnits="userSpaceOnUse">
      <stop stop-color="#F28526"/>
      <stop offset="1" stop-color="#C95A00"/>
    </linearGradient>
  </defs>
  <rect width="1200" height="760" rx="46" fill="url(#bg1)"/>
  <circle cx="948" cy="142" r="240" fill="#F28526" fill-opacity="0.14"/>
  <circle cx="260" cy="606" r="220" fill="#5F6EDE" fill-opacity="0.16"/>
  <rect x="70" y="68" width="1060" height="624" rx="36" fill="white" fill-opacity="0.05" stroke="white" stroke-opacity="0.1"/>
  <rect x="120" y="112" width="470" height="536" rx="34" fill="url(#panel1)" stroke="white" stroke-opacity="0.1"/>
  <text x="166" y="188" fill="#FFD7B4" font-family="Segoe UI, Arial, sans-serif" font-size="24" font-weight="800" letter-spacing="3">PRESENCIA TECNICA</text>
  <text x="166" y="270" fill="white" font-family="Segoe UI, Arial, sans-serif" font-size="62" font-weight="800">Control de calidad</text>
  <text x="166" y="338" fill="white" font-family="Segoe UI, Arial, sans-serif" font-size="62" font-weight="800">para obras civiles</text>
  <text x="166" y="402" fill="#D9E1FF" font-family="Segoe UI, Arial, sans-serif" font-size="24" font-weight="600">Suelos, pavimentos y laboratorio con soporte</text>
  <text x="166" y="440" fill="#D9E1FF" font-family="Segoe UI, Arial, sans-serif" font-size="24" font-weight="600">tecnico para infraestructura, edificaciones y saneamiento.</text>
  <rect x="166" y="496" width="154" height="42" rx="21" fill="#F28526"/>
  <text x="196" y="524" fill="white" font-family="Segoe UI, Arial, sans-serif" font-size="20" font-weight="800">Cobertura nacional</text>
  <rect x="684" y="138" width="344" height="206" rx="30" fill="url(#accent1)"/>
  <text x="724" y="202" fill="white" font-family="Segoe UI, Arial, sans-serif" font-size="22" font-weight="800">RUBROS ATENDIDOS</text>
  <text x="724" y="262" fill="white" font-family="Segoe UI, Arial, sans-serif" font-size="48" font-weight="800">Vial</text>
  <text x="866" y="262" fill="white" font-family="Segoe UI, Arial, sans-serif" font-size="48" font-weight="800">Concreto</text>
  <text x="724" y="316" fill="#FFF2E6" font-family="Segoe UI, Arial, sans-serif" font-size="28" font-weight="700">Saneamiento · Edificaciones</text>
  <rect x="684" y="382" width="344" height="222" rx="30" fill="white" fill-opacity="0.07" stroke="white" stroke-opacity="0.1"/>
  <rect x="724" y="430" width="264" height="18" rx="9" fill="#FFFFFF" fill-opacity="0.2"/>
  <rect x="724" y="468" width="214" height="18" rx="9" fill="#FFFFFF" fill-opacity="0.14"/>
  <rect x="724" y="518" width="112" height="38" rx="19" fill="#F28526"/>
  <text x="864" y="544" fill="#D9E1FF" font-family="Segoe UI, Arial, sans-serif" font-size="20" font-weight="700">Ensayos y control tecnico</text>
  <path d="M748 288L792 248L836 264L886 214L946 248" stroke="#FFD7B4" stroke-width="10" stroke-linecap="round" stroke-linejoin="round"/>
  <circle cx="792" cy="248" r="12" fill="#FFD7B4"/>
  <circle cx="886" cy="214" r="12" fill="#FFD7B4"/>
</svg>
