<svg width="1200" height="760" viewBox="0 0 1200 760" fill="none" xmlns="http://www.w3.org/2000/svg">
  <rect width="1200" height="760" rx="42" fill="#10153D"/>
  <rect x="42" y="42" width="1116" height="676" rx="34" fill="url(#paint0_linear)"/>
  <circle cx="250" cy="170" r="128" fill="#5F6EDE" fill-opacity="0.18"/>
  <circle cx="1002" cy="574" r="142" fill="#F28526" fill-opacity="0.16"/>
  <rect x="104" y="116" width="312" height="232" rx="28" fill="#FFFFFF" fill-opacity="0.08" stroke="#FFFFFF" stroke-opacity="0.14"/>
  <rect x="444" y="116" width="312" height="232" rx="28" fill="#FFFFFF" fill-opacity="0.1" stroke="#FFFFFF" stroke-opacity="0.16"/>
  <rect x="784" y="116" width="312" height="232" rx="28" fill="#FFFFFF" fill-opacity="0.08" stroke="#FFFFFF" stroke-opacity="0.14"/>
  <rect x="136" y="148" width="248" height="168" rx="22" fill="url(#paint1_linear)"/>
  <rect x="476" y="148" width="248" height="168" rx="22" fill="url(#paint2_linear)"/>
  <rect x="816" y="148" width="248" height="168" rx="22" fill="url(#paint3_linear)"/>
  <rect x="128" y="418" width="968" height="214" rx="34" fill="#FFFFFF" fill-opacity="0.08" stroke="#FFFFFF" stroke-opacity="0.14"/>
  <text x="172" y="484" fill="#F6D3B0" font-family="Segoe UI, Arial, sans-serif" font-size="28" font-weight="700" letter-spacing="2">BLOQUE EDITABLE 03</text>
  <text x="172" y="540" fill="white" font-family="Segoe UI, Arial, sans-serif" font-size="52" font-weight="800">RESPALDO VISUAL Y GALERIA</text>
  <text x="172" y="590" fill="#D6D9F8" font-family="Segoe UI, Arial, sans-serif" font-size="22">Puedes reemplazar este arte por fotos de obra, equipos, laboratorio o clientes atendidos.</text>
  <rect x="172" y="614" width="170" height="18" rx="9" fill="#F28526"/>
  <defs>
    <linearGradient id="paint0_linear" x1="96" y1="66" x2="1128" y2="718" gradientUnits="userSpaceOnUse">
      <stop stop-color="#1B2366"/>
      <stop offset="1" stop-color="#10153D"/>
    </linearGradient>
    <linearGradient id="paint1_linear" x1="136" y1="148" x2="384" y2="316" gradientUnits="userSpaceOnUse">
      <stop stop-color="#5F6EDE"/>
      <stop offset="1" stop-color="#2A358F"/>
    </linearGradient>
    <linearGradient id="paint2_linear" x1="476" y1="148" x2="724" y2="316" gradientUnits="userSpaceOnUse">
      <stop stop-color="#F28526"/>
      <stop offset="1" stop-color="#C75800"/>
    </linearGradient>
    <linearGradient id="paint3_linear" x1="816" y1="148" x2="1064" y2="316" gradientUnits="userSpaceOnUse">
      <stop stop-color="#20337A"/>
      <stop offset="1" stop-color="#081035"/>
    </linearGradient>
  </defs>
</svg>
