<svg width="1200" height="760" viewBox="0 0 1200 760" fill="none" xmlns="http://www.w3.org/2000/svg">
  <rect width="1200" height="760" rx="42" fill="#10153D"/>
  <rect x="42" y="42" width="1116" height="676" rx="34" fill="url(#paint0_linear)"/>
  <circle cx="938" cy="174" r="106" fill="#F28526" fill-opacity="0.18"/>
  <rect x="90" y="112" width="452" height="540" rx="30" fill="#FFFFFF" fill-opacity="0.08" stroke="#FFFFFF" stroke-opacity="0.16"/>
  <rect x="126" y="148" width="380" height="474" rx="24" fill="#F7F3EB"/>
  <rect x="160" y="190" width="196" height="28" rx="14" fill="#2A358F" fill-opacity="0.16"/>
  <rect x="160" y="250" width="310" height="18" rx="9" fill="#2A358F" fill-opacity="0.2"/>
  <rect x="160" y="288" width="270" height="18" rx="9" fill="#2A358F" fill-opacity="0.14"/>
  <rect x="160" y="338" width="118" height="118" rx="26" fill="#F28526" fill-opacity="0.92"/>
  <path d="M194 394H244" stroke="white" stroke-width="16" stroke-linecap="round"/>
  <path d="M218 370V418" stroke="white" stroke-width="16" stroke-linecap="round"/>
  <rect x="300" y="338" width="170" height="20" rx="10" fill="#2A358F" fill-opacity="0.2"/>
  <rect x="300" y="374" width="138" height="16" rx="8" fill="#2A358F" fill-opacity="0.14"/>
  <rect x="300" y="404" width="126" height="16" rx="8" fill="#2A358F" fill-opacity="0.12"/>
  <rect x="160" y="514" width="154" height="38" rx="19" fill="#10153D"/>
  <rect x="602" y="124" width="504" height="164" rx="30" fill="#FFFFFF" fill-opacity="0.08" stroke="#FFFFFF" stroke-opacity="0.14"/>
  <text x="644" y="178" fill="#F6D3B0" font-family="Segoe UI, Arial, sans-serif" font-size="28" font-weight="700" letter-spacing="2">BLOQUE EDITABLE 02</text>
  <text x="644" y="226" fill="white" font-family="Segoe UI, Arial, sans-serif" font-size="52" font-weight="800">DOCUMENTOS Y REPORTES</text>
  <text x="644" y="404" fill="white" font-family="Segoe UI, Arial, sans-serif" font-size="32" font-weight="700">Perfecto para reemplazar por PDFs o capturas reales</text>
  <text x="644" y="450" fill="#D6D9F8" font-family="Segoe UI, Arial, sans-serif" font-size="22">La estructura ya queda lista para cartas, informes y anexos.</text>
  <rect x="644" y="510" width="196" height="120" rx="26" fill="#FFFFFF" fill-opacity="0.08" stroke="#FFFFFF" stroke-opacity="0.12"/>
  <rect x="868" y="510" width="238" height="120" rx="26" fill="#FFFFFF" fill-opacity="0.08" stroke="#FFFFFF" stroke-opacity="0.12"/>
  <text x="678" y="572" fill="#F28526" font-family="Segoe UI, Arial, sans-serif" font-size="24" font-weight="800">PDFS</text>
  <text x="678" y="606" fill="#FFFFFF" font-family="Segoe UI, Arial, sans-serif" font-size="26" font-weight="700">Carta y reporte</text>
  <text x="902" y="572" fill="#F28526" font-family="Segoe UI, Arial, sans-serif" font-size="24" font-weight="800">ENTREGA</text>
  <text x="902" y="606" fill="#FFFFFF" font-family="Segoe UI, Arial, sans-serif" font-size="26" font-weight="700">WhatsApp y correo</text>
  <defs>
    <linearGradient id="paint0_linear" x1="124" y1="84" x2="1124" y2="704" gradientUnits="userSpaceOnUse">
      <stop stop-color="#162058"/>
      <stop offset="1" stop-color="#10153D"/>
    </linearGradient>
  </defs>
</svg>
