<svg width="1200" height="760" viewBox="0 0 1200 760" fill="none" xmlns="http://www.w3.org/2000/svg">
  <rect width="1200" height="760" rx="42" fill="#10153D"/>
  <rect x="42" y="42" width="1116" height="676" rx="34" fill="url(#paint0_linear)"/>
  <circle cx="988" cy="136" r="118" fill="#F28526" fill-opacity="0.15"/>
  <circle cx="238" cy="602" r="154" fill="#5F6EDE" fill-opacity="0.16"/>
  <rect x="94" y="108" width="398" height="514" rx="28" fill="#FFFFFF" fill-opacity="0.08" stroke="#FFFFFF" stroke-opacity="0.16"/>
  <rect x="122" y="138" width="342" height="244" rx="22" fill="url(#paint1_linear)"/>
  <path d="M144 328L196 266L246 286L304 224L356 248L438 180" stroke="#F6D3B0" stroke-width="12" stroke-linecap="round" stroke-linejoin="round"/>
  <rect x="148" y="420" width="168" height="20" rx="10" fill="#FFFFFF" fill-opacity="0.82"/>
  <rect x="148" y="458" width="252" height="16" rx="8" fill="#FFFFFF" fill-opacity="0.26"/>
  <rect x="148" y="488" width="228" height="16" rx="8" fill="#FFFFFF" fill-opacity="0.18"/>
  <rect x="148" y="542" width="126" height="38" rx="19" fill="#F28526"/>
  <rect x="552" y="126" width="538" height="142" rx="30" fill="#FFFFFF" fill-opacity="0.08" stroke="#FFFFFF" stroke-opacity="0.14"/>
  <text x="592" y="180" fill="#F6D3B0" font-family="Segoe UI, Arial, sans-serif" font-size="28" font-weight="700" letter-spacing="2">BLOQUE EDITABLE 01</text>
  <text x="592" y="226" fill="white" font-family="Segoe UI, Arial, sans-serif" font-size="54" font-weight="800">AVANCES DE OBRA</text>
  <text x="592" y="424" fill="white" font-family="Segoe UI, Arial, sans-serif" font-size="32" font-weight="700">Proyectos con seguimiento técnico</text>
  <text x="592" y="470" fill="#D6D9F8" font-family="Segoe UI, Arial, sans-serif" font-size="22">Ideal para reemplazar por fotos o artes de campo.</text>
  <rect x="552" y="518" width="228" height="128" rx="26" fill="#FFFFFF" fill-opacity="0.08" stroke="#FFFFFF" stroke-opacity="0.12"/>
  <rect x="808" y="518" width="282" height="128" rx="26" fill="#FFFFFF" fill-opacity="0.08" stroke="#FFFFFF" stroke-opacity="0.12"/>
  <text x="592" y="578" fill="#F28526" font-family="Segoe UI, Arial, sans-serif" font-size="24" font-weight="800">FECHAS</text>
  <text x="592" y="612" fill="#FFFFFF" font-family="Segoe UI, Arial, sans-serif" font-size="26" font-weight="700">17 al 23 abril 2026</text>
  <text x="846" y="578" fill="#F28526" font-family="Segoe UI, Arial, sans-serif" font-size="24" font-weight="800">ACTIVIDADES</text>
  <text x="846" y="612" fill="#FFFFFF" font-family="Segoe UI, Arial, sans-serif" font-size="26" font-weight="700">Cantera · Cunetas · Muestreo</text>
  <defs>
    <linearGradient id="paint0_linear" x1="124" y1="84" x2="1124" y2="704" gradientUnits="userSpaceOnUse">
      <stop stop-color="#1B2366"/>
      <stop offset="1" stop-color="#10153D"/>
    </linearGradient>
    <linearGradient id="paint1_linear" x1="122" y1="138" x2="464" y2="382" gradientUnits="userSpaceOnUse">
      <stop stop-color="#5F6EDE"/>
      <stop offset="1" stop-color="#2A358F"/>
    </linearGradient>
  </defs>
</svg>
